REM DIRINDEX 1\2,1\3,1\4
REM DIRNAME folder01,folder02,folder03,folder04
TITLE ""
FILE "127 127_TOEFL_3900.mp3" MP3
  TRACK 01 AUDIO
    TITLE "2:cjc151_5514"
    INDEX 01 00:00:00
  TRACK 02 AUDIO
    TITLE "0:"
    INDEX 01 00:01:28
  TRACK 03 AUDIO
    TITLE "3:cjc151_5515"
    INDEX 01 00:03:06
  TRACK 04 AUDIO
    TITLE "0:"
    INDEX 01 00:07:09
  TRACK 05 AUDIO
    TITLE "2:cjc151_5516"
    INDEX 01 00:08:64
  TRACK 06 AUDIO
    TITLE "0:"
    INDEX 01 00:10:10
  TRACK 07 AUDIO
    TITLE "3:cjc151_5517"
    INDEX 01 00:11:64
  TRACK 08 AUDIO
    TITLE "0:"
    INDEX 01 00:16:28
  TRACK 09 AUDIO
    TITLE "2:cjc151_5518"
    INDEX 01 00:18:09
  TRACK 10 AUDIO
    TITLE "0:"
    INDEX 01 00:19:22
  TRACK 11 AUDIO
    TITLE "3:cjc151_5519"
    INDEX 01 00:21:00
  TRACK 12 AUDIO
    TITLE "0:"
    INDEX 01 00:25:17
  TRACK 13 AUDIO
    TITLE "2:cjc151_5520"
    INDEX 01 00:26:71
  TRACK 14 AUDIO
    TITLE "0:"
    INDEX 01 00:28:15
  TRACK 15 AUDIO
    TITLE "3:cjc151_5521"
    INDEX 01 00:29:68
  TRACK 16 AUDIO
    TITLE "0:"
    INDEX 01 00:34:08
  TRACK 17 AUDIO
    TITLE "2:cjc151_5522"
    INDEX 01 00:35:63
  TRACK 18 AUDIO
    TITLE "0:"
    INDEX 01 00:37:07
  TRACK 19 AUDIO
    TITLE "3:cjc151_5523"
    INDEX 01 00:38:61
  TRACK 20 AUDIO
    TITLE "0:"
    INDEX 01 00:43:42
  TRACK 21 AUDIO
    TITLE "2:cjc151_5524"
    INDEX 01 00:45:24
  TRACK 22 AUDIO
    TITLE "0:"
    INDEX 01 00:46:33
  TRACK 23 AUDIO
    TITLE "3:cjc151_5525"
    INDEX 01 00:48:12
  TRACK 24 AUDIO
    TITLE "0:"
    INDEX 01 00:53:29
  TRACK 25 AUDIO
    TITLE "2:cjc151_5526"
    INDEX 01 00:55:08
  TRACK 26 AUDIO
    TITLE "0:"
    INDEX 01 00:56:24
  TRACK 27 AUDIO
    TITLE "3:cjc151_5527"
    INDEX 01 00:58:03
  TRACK 28 AUDIO
    TITLE "0:"
    INDEX 01 01:02:40
  TRACK 29 AUDIO
    TITLE "2:cjc151_5528"
    INDEX 01 01:04:17
  TRACK 30 AUDIO
    TITLE "0:"
    INDEX 01 01:05:34
  TRACK 31 AUDIO
    TITLE "3:cjc151_5529"
    INDEX 01 01:07:14
  TRACK 32 AUDIO
    TITLE "0:"
    INDEX 01 01:11:07
  TRACK 33 AUDIO
    TITLE "2:cjc151_5530"
    INDEX 01 01:12:64
  TRACK 34 AUDIO
    TITLE "0:"
    INDEX 01 01:14:00
  TRACK 35 AUDIO
    TITLE "3:cjc151_5531"
    INDEX 01 01:15:54
  TRACK 36 AUDIO
    TITLE "0:"
    INDEX 01 01:20:00
  TRACK 37 AUDIO
    TITLE "2:cjc151_5532"
    INDEX 01 01:21:53
  TRACK 38 AUDIO
    TITLE "0:"
    INDEX 01 01:22:58
  TRACK 39 AUDIO
    TITLE "3:cjc151_5533"
    INDEX 01 01:24:37
  TRACK 40 AUDIO
    TITLE "0:"
    INDEX 01 01:28:10
  TRACK 41 AUDIO
    TITLE "2:cjc151_5534"
    INDEX 01 01:29:62
  TRACK 42 AUDIO
    TITLE "0:"
    INDEX 01 01:31:08
  TRACK 43 AUDIO
    TITLE "3:cjc151_5535"
    INDEX 01 01:32:62
  TRACK 44 AUDIO
    TITLE "0:"
    INDEX 01 01:37:21
  TRACK 45 AUDIO
    TITLE "2:cjc151_5536"
    INDEX 01 01:38:71
  TRACK 46 AUDIO
    TITLE "0:"
    INDEX 01 01:39:74
  TRACK 47 AUDIO
    TITLE "3:cjc151_5537"
    INDEX 01 01:41:52
  TRACK 48 AUDIO
    TITLE "0:"
    INDEX 01 01:45:69
  TRACK 49 AUDIO
    TITLE "2:cjc151_5538"
    INDEX 01 01:47:48
  TRACK 50 AUDIO
    TITLE "0:"
    INDEX 01 01:49:16
  TRACK 51 AUDIO
    TITLE "3:cjc151_5539"
    INDEX 01 01:50:70
  TRACK 52 AUDIO
    TITLE "0:"
    INDEX 01 01:55:40
  TRACK 53 AUDIO
    TITLE "2:cjc151_5540"
    INDEX 01 01:57:17
  TRACK 54 AUDIO
    TITLE "0:"
    INDEX 01 01:58:21
  TRACK 55 AUDIO
    TITLE "3:cjc151_5541"
    INDEX 01 02:00:00
  TRACK 56 AUDIO
    TITLE "0:"
    INDEX 01 02:04:21
  TRACK 57 AUDIO
    TITLE "2:cjc151_5542"
    INDEX 01 02:06:01
  TRACK 58 AUDIO
    TITLE "0:"
    INDEX 01 02:07:20
  TRACK 59 AUDIO
    TITLE "3:cjc151_5543"
    INDEX 01 02:08:74
  TRACK 60 AUDIO
    TITLE "0:"
    INDEX 01 02:12:44
  TRACK 61 AUDIO
    TITLE "2:cjc151_5544"
    INDEX 01 02:14:24
  TRACK 62 AUDIO
    TITLE "0:"
    INDEX 01 02:15:35
  TRACK 63 AUDIO
    TITLE "3:cjc151_5545"
    INDEX 01 02:17:16
  TRACK 64 AUDIO
    TITLE "0:"
    INDEX 01 02:20:54
  TRACK 65 AUDIO
    TITLE "2:cjc151_5546"
    INDEX 01 02:22:31
  TRACK 66 AUDIO
    TITLE "0:"
    INDEX 01 02:23:46
  TRACK 67 AUDIO
    TITLE "3:cjc151_5547"
    INDEX 01 02:25:16
  TRACK 68 AUDIO
    TITLE "0:"
    INDEX 01 02:29:00
  TRACK 69 AUDIO
    TITLE "2:cjc151_5548"
    INDEX 01 02:30:50
  TRACK 70 AUDIO
    TITLE "0:"
    INDEX 01 02:32:12
  TRACK 71 AUDIO
    TITLE "3:cjc151_5549"
    INDEX 01 02:33:66
  TRACK 72 AUDIO
    TITLE "0:"
    INDEX 01 02:39:04
  TRACK 73 AUDIO
    TITLE "2:cjc151_5550"
    INDEX 01 02:40:58
  TRACK 74 AUDIO
    TITLE "0:"
    INDEX 01 02:41:73
  TRACK 75 AUDIO
    TITLE "3:cjc151_5551"
    INDEX 01 02:43:51
  TRACK 76 AUDIO
    TITLE "0:"
    INDEX 01 02:47:68
  TRACK 77 AUDIO
    TITLE "2:cjc151_5552"
    INDEX 01 02:49:45
  TRACK 78 AUDIO
    TITLE "0:"
    INDEX 01 02:50:65
  TRACK 79 AUDIO
    TITLE "3:cjc151_5553"
    INDEX 01 02:52:44
  TRACK 80 AUDIO
    TITLE "0:"
    INDEX 01 02:56:53
  TRACK 81 AUDIO
    TITLE "2:cjc151_5554"
    INDEX 01 02:58:33
  TRACK 82 AUDIO
    TITLE "0:"
    INDEX 01 02:59:38
  TRACK 83 AUDIO
    TITLE "3:cjc151_5555"
    INDEX 01 03:01:13
  TRACK 84 AUDIO
    TITLE "0:"
    INDEX 01 03:04:59
  TRACK 85 AUDIO
    TITLE "2:cjc151_5556"
    INDEX 01 03:06:38
  TRACK 86 AUDIO
    TITLE "0:"
    INDEX 01 03:07:30
  TRACK 87 AUDIO
    TITLE "3:cjc151_5557"
    INDEX 01 03:09:07
  TRACK 88 AUDIO
    TITLE "0:"
    INDEX 01 03:13:15
